PathFileType	4	(X/Y/Z)	Walk1_0-155.trc
DataRate	CameraRate	NumFrames	NumMarkers	Units	OrigDataRate	OrigDataStartFrame	OrigNumFrames
30	30	7	22	m	30	116	155
Frame#	Time	Hip			RHip			RKnee			RAnkle			RBigToe			RSmallToe			RHeel			LHip			LKnee			LAnkle			LBigToe			LSmallToe			LHeel			Neck			Head			Nose			RShoulder			RElbow			RWrist			LShoulder			LElbow			LWrist		
		X1	Y1	Z1	X2	Y2	Z2	X3	Y3	Z3	X4	Y4	Z4	X5	Y5	Z5	X6	Y6	Z6	X7	Y7	Z7	X8	Y8	Z8	X9	Y9	Z9	X10	Y10	Z10	X11	Y11	Z11	X12	Y12	Z12	X13	Y13	Z13	X14	Y14	Z14	X15	Y15	Z15	X16	Y16	Z16	X17	Y17	Z17	X18	Y18	Z18	X19	Y19	Z19	X20	Y20	Z20	X21	Y21	Z21	X22	Y22	Z22
117	3.9	0.9855906797218514	0.9083181752807005	0.3975156055027607	0.9724856709525825	0.8949800676617916	0.5155344009993039	0.9212368467736529	0.5191832571399387	0.480339656584353	0.8567046984756282	0.10261351366693565	0.44555108312361213	1.0419502889178585	0.032088916598826345	0.4501128226903297	0.9939275529248113	0.023845894614895953	0.5056157433508843	0.8023373723935263	0.033696044991574525	0.4321776203224487	0.9921433326073311	0.8941869189072535	0.28580646710681124	1.1740169050839193	0.5555306474483986	0.30566806991770784	1.0152737170221995	0.21065937966884568	0.32546229650185576	1.1860895842650114	0.08166134115435011	0.32417690063173865	1.1533351935433862	0.08817975263450609	0.26775911720281403	0.9541610683651105	0.15293825844313308	0.3295074168408336	0.9114059747952095	1.5799454784273477	0.41713196447611905	0.9756921573691747	1.8473441445548562	0.448226756743249	1.0819287379712796	1.6780566739396112	0.4041614962328663	0.895020370292943	1.4613040689024432	0.5840567714594581	1.0103059887653714	1.17763449508949	0.6616383828686718	1.1931929877751402	0.9657439238930231	0.672813727739568	0.8924229827666524	1.4674280504353483	0.22515907762062765	0.8623910981516775	1.1619785699941692	0.16560212291599252	0.918050008351058	0.9068153627939852	0.10819085976860132
118	3.933333333333333	1.018578130849407	0.9064413066450911	0.40040852116304876	1.0020292947195526	0.8940042871685573	0.5173516243771864	0.9364290041988917	0.520208526884068	0.4815099010871136	0.8587278243112311	0.1037193891988036	0.4458420889756774	1.0415026355570172	0.03226990978257881	0.4548453416783663	0.9931119159928794	0.02426130250375629	0.5082718909176075	0.803009590410676	0.0351436296095304	0.42928762912035295	1.0281067827415518	0.8918806047333507	0.28857721435043265	1.2227872682087657	0.5537989848482191	0.3152044480640816	1.124324100958924	0.1822793889299607	0.32831098597728053	1.324716835376494	0.08487623775491561	0.32864986862066503	1.2922078601572378	0.08292448872263507	0.2746122120675793	1.0739309605451326	0.11698652368190893	0.3317362932168312	0.9505939074256947	1.5788919744623595	0.42038630863100845	1.013359742931954	1.8447849755268906	0.4479131107085095	1.123554161798654	1.6724257594472538	0.40662629740178297	0.9336498494115324	1.4616424620540585	0.5859007944949406	1.0661495855220333	1.1826941553979147	0.6685662102487152	1.2665900499584457	0.9842645307850797	0.6713985259134319	0.9338190261367149	1.464704450418568	0.23364752546137033	0.8956048483470861	1.1597126501059636	0.16982613730254645	0.9428431016212515	0.9022347821337094	0.10092532464165296
119	3.966666666666667	1.0547213507290802	0.9018517093815736	0.40494219163575357	1.0347611589333363	0.8890852456080228	0.5192658467457425	0.9524411902383311	0.5194599995212409	0.48257981267337885	0.8602027144881847	0.10525968979361422	0.44601331828833124	1.0415981422779632	0.030470596600520566	0.4591424356429109	0.9926384263101332	0.02332317379168405	0.5098355766958848	0.8038801737428318	0.03730778673939515	0.4263531204353515	1.0668270872115662	0.8862834392158956	0.2937162501415679	1.264866258451794	0.5466410161645903	0.32173994302460995	1.228405659740826	0.1595377658223823	0.3272772567024106	1.4473752004475287	0.08969017052844913	0.32776902664538476	1.4156024437793218	0.08032315471384746	0.2780920926614584	1.1896671702606914	0.08891254200708126	0.33141354973994125	0.9892364308423457	1.5766377506249172	0.41902190082618845	1.053320942363638	1.8401241399797978	0.4435410685462733	1.1687782095182062	1.6658921104283204	0.4069694891254406	0.9700325508796922	1.460095619954953	0.5846402977807528	1.1156083182274976	1.1842091414256688	0.6727409562350688	1.336052288129486	0.9998573126574879	0.6672461811461927	0.9802815427479253	1.4607637769705244	0.2426891905722385	0.9336093509452823	1.155071082172322	0.17304157627156377	0.9720853596913089	0.8944280095422609	0.09442431165437368
120	4.0	1.0955970271993853	0.8949059022702992	0.4088634839020127	1.0725238315644174	0.8809765224967082	0.5197002692715128	0.971617967235109	0.5169585257164678	0.4831426520922454	0.8615230771947746	0.10814798371712031	0.44639451341512065	1.0412556063167944	0.02688408723147868	0.4616448661121721	0.9910876078827601	0.02113028591926527	0.5093973557305993	0.8051108693979407	0.04163436326439956	0.423370302337245	1.109480524723323	0.877871801334301	0.2987372822760333	1.3042204733129132	0.5359674516260914	0.324392884986392	1.3263624181786033	0.14251457900282039	0.3232895686751682	1.5549452867893279	0.0945025781398434	0.32297721632094356	1.5255018828361533	0.07843938259069982	0.27804478219291173	1.2992136657997024	0.06792820698946005	0.3286379785577534	1.028137772832653	1.572926570621126	0.4123142226953973	1.0957434166918103	1.8343041058374212	0.4350971274001352	1.2163521449263275	1.659488241366693	0.40483723181234904	1.0078303219139126	1.4564930832647087	0.580357574791603	1.159005461064388	1.1825285447843232	0.67251132259621	1.4014806028713578	1.0115639275864943	0.6609052992801419	1.0302249333771323	1.4557891866036474	0.24868608149875535	0.974335710838736	1.1485173085315505	0.17413447352710912	1.00595117536121	0.8843913205956895	0.08868745239027624
121	4.033333333333333	1.1411463891735967	0.8863256177516141	0.4109470611687128	1.115544277265045	0.8710852149987551	0.5183366540175732	0.9971611622613265	0.5128405913563114	0.4829955100495784	0.8634997978986961	0.113691979454366	0.44693119889833616	1.040440180657189	0.022189210737815514	0.46195959320748897	0.9880060499976648	0.018490484344989885	0.5069731643031334	0.8067298977178482	0.049597547897624855	0.4206474038952695	1.1558338998690796	0.8678978166040128	0.30208346708787753	1.3450751624932153	0.5247057248614044	0.32479761509429184	1.41378354859175	0.1298683126272021	0.31844258602089986	1.6457979223185857	0.09630608003713834	0.3172637466652535	1.6210536140878258	0.07402882297557449	0.27642115497875375	1.3967634384386236	0.05213858334354284	0.32510943249810775	1.0681655798888725	1.5675952348409874	0.402112673459944	1.1397258385850657	1.8277957551844133	0.4246578968770946	1.2645215626114008	1.6542599112777043	0.3998826282355805	1.0485754521905024	1.4509810957010865	0.5738550624932165	1.197766054353805	1.178101219420209	0.6672643769933502	1.4611771604288735	1.018384456484223	0.6532294651957643	1.081241812771632	1.4500395291968409	0.2502180302873563	1.0152541962288442	1.1407466726487332	0.17161652949083503	1.0447646503129902	0.8734277324230092	0.08380642407348085
122	4.066666666666666	1.1904069824126613	0.8771854750336818	0.4110830671372569	1.1630529607770776	0.8612484953988422	0.5158865599581325	1.0318355102220331	0.5075648186925029	0.4824312532767693	0.8676531526090283	0.12341604680791544	0.4473442670203127	1.0398670317429088	0.01707464155201098	0.46100601533490365	0.9842246876266106	0.016621792213335602	0.503621844933272	0.8088809742861346	0.0627385332234659	0.41881161006386874	1.2050854162025255	0.858230978171855	0.3033675955462557	1.3905632926086047	0.5157332116588028	0.3256298952270251	1.485819554984097	0.11989024857751697	0.31472796229097516	1.7178020292524119	0.0923218382965474	0.3133918271217547	1.6996452854224953	0.06462928940643611	0.2758869148834017	1.4762249983471083	0.03992211649382076	0.3229152210701168	1.1098410652643904	1.5609778502036695	0.3911684571370175	1.184933997767178	1.820920787272886	0.4151050610997483	1.3122029025984256	1.6508044922041931	0.39224558633885465	1.091873408279329	1.4441865851894868	0.566197000765355	1.2345354828360686	1.1713389879315972	0.6584682884310611	1.5137368821558361	1.0196608088976653	0.6450474018879494	1.1315356922951514	1.443949857334869	0.24827886079322997	1.0550925972113085	1.1325526834368307	0.16480817106388843	1.0891656437343118	0.8628493561766258	0.08041190927322943
123	4.1	1.2421915632427245	0.8688003350270459	0.4093327403737113	1.2140430237377626	0.8531889558312021	0.5129726861571889	1.0770987967451644	0.5019397807725822	0.48214655950915325	0.8765916308848808	0.1387648382213352	0.4478437240882203	1.0401490173390218	0.012023056327435368	0.4600914417740503	0.9811254613700409	0.01654229219417428	0.5007833575932451	0.8127762677362663	0.08281745100002894	0.4183019462984095	1.2563415931484307	0.8506499002050574	0.3025619387605289	1.4400983850045683	0.5105338005753268	0.3274392991813549	1.540122619839166	0.11150754855818958	0.31308728447764	1.7704467609721435	0.08188843529446829	0.31250369105422504	1.7587836150862015	0.050540251170650495	0.27776317304537357	1.5343562204182701	0.03063339741738124	0.32306807679031535	1.152877461803213	1.5539896343741153	0.3812101606179358	1.2316490767072095	1.8142159907214979	0.4082584903192934	1.358787695847884	1.6490220852149964	0.38315030278111134	1.1366849529691416	1.4370956111187054	0.5583108078689489	1.2713311105940128	1.162998628877981	0.6483788794135601	1.5583611897102592	1.015320523104382	0.6370456049440576	1.1800242158223744	1.438125451167066	0.24450155304578494	1.0946312791996626	1.1246607121244863	0.15482450422312374	1.1395515293672411	0.8540007298574391	0.07996674526836553
